<svg xmlns="http://www.w3.org/2000/svg" width="255" height="107" viewBox="0 0 255 107">
      <g id="Rectangle_33" data-name="Rectangle 33" fill="none" stroke="#fff" stroke-linejoin="round" stroke-width="2">
        <rect width="46" height="46" rx="5" stroke="none"></rect>
        <rect x="1" y="1" width="44" height="44" rx="4" fill="none"></rect>
      </g>
      <text id="_91_9677560676" data-name="+91 9677560676" transform="translate(62 74)" fill="#feffff" font-size="18" font-family="Kanit-Regular, Kanit"><tspan x="0" y="20">+91 9677560676</tspan></text>
      <text id="info_primespot.com" data-name="info@primespot.com" transform="translate(62 13)" fill="#feffff" font-size="18" font-family="Kanit-Regular, Kanit"><tspan x="0" y="20">info@primespot.com</tspan></text>
      <g id="Rectangle_33-2" data-name="Rectangle 33" transform="translate(0 61)" fill="none" stroke="#000" stroke-linejoin="round" stroke-width="2">
        <rect width="46" height="46" rx="5" stroke="none"></rect>
        <rect x="1" y="1" width="44" height="44" rx="4" fill="none"></rect>
      </g>
      <g id="call" transform="translate(13.001 74)">
        <g id="Group_36" data-name="Group 36">
          <path id="Path_67" data-name="Path 67" d="M18.395,13.127a11.355,11.355,0,0,1-3.566-.568,1.63,1.63,0,0,0-1.585.334l-2.249,1.7A12.427,12.427,0,0,1,5.407,9l1.648-2.19a1.617,1.617,0,0,0,.4-1.638A11.372,11.372,0,0,1,6.882,1.6,1.607,1.607,0,0,0,5.278,0H1.6A1.607,1.607,0,0,0,0,1.6,18.416,18.416,0,0,0,18.395,20a1.607,1.607,0,0,0,1.6-1.6V14.732A1.607,1.607,0,0,0,18.395,13.127Z"></path>
        </g>
      </g>
    </svg>