<svg
              xmlns="http://www.w3.org/2000/svg"
              width="60.977"
              height="60.977"
              viewBox="0 0 60.977 60.977"
            >
              <g
                id="Group_3"
                data-name="Group 3"
                transform="translate(-102.444 -748.442)"
              >
                <g id="web-design" transform="translate(102.444 748.442)">
                  <path
                    id="Path_12"
                    data-name="Path 12"
                    d="M5.543,0H55.433a5.543,5.543,0,0,1,5.543,5.543V49.893a5.543,5.543,0,0,1-5.543,5.543H5.543A5.543,5.543,0,0,1,0,49.893V5.546A5.543,5.543,0,0,1,5.543,0Z"
                    transform="translate(0 -0.003)"
                    fill="#f0eaf9"
                  ></path>
                  <path
                    id="Path_13"
                    data-name="Path 13"
                    d="M2.772,85.34H58.2a2.772,2.772,0,0,1,2.772,2.772h0A2.772,2.772,0,0,1,58.2,90.883H2.772A2.772,2.772,0,0,1,0,88.112H0A2.772,2.772,0,0,1,2.772,85.34Z"
                    transform="translate(0 -74.253)"
                    fill="#e1d5f3"
                  ></path>
                  <path
                    id="Path_14"
                    data-name="Path 14"
                    d="M5.543,0h49.89a5.543,5.543,0,0,1,5.543,5.543h0v8.315H0V5.546A5.543,5.543,0,0,1,5.543,0Z"
                    transform="translate(0 -0.003)"
                    fill="#5628b4"
                  ></path>
                  <path
                    id="Path_15"
                    data-name="Path 15"
                    d="M24.106,0H74a2.772,2.772,0,0,1,2.772,2.772h0A2.772,2.772,0,0,1,74,5.546H24.106a2.772,2.772,0,0,1-2.772-2.772h0A2.772,2.772,0,0,1,24.106,0Z"
                    transform="translate(-18.562 -0.003)"
                    fill="#6f48bf"
                  ></path>
                  <path
                    id="Path_16"
                    data-name="Path 16"
                    d="M22.72,85.34H75.382a1.386,1.386,0,0,1,1.386,1.386h0a1.386,1.386,0,0,1-1.386,1.386H22.72a1.386,1.386,0,0,1-1.386-1.386h0A1.386,1.386,0,0,1,22.72,85.34Z"
                    transform="translate(-18.562 -74.253)"
                    fill="#421198"
                  ></path>
                  <path
                    id="Path_17"
                    data-name="Path 17"
                    d="M319.454,149.337a1.386,1.386,0,0,0-1.386,1.386h0v29.1A2.772,2.772,0,0,1,315.3,182.6H300.053a1.386,1.386,0,0,0,0,2.772H315.3a5.543,5.543,0,0,0,5.543-5.543v-29.1a1.386,1.386,0,0,0-1.386-1.386Z"
                    transform="translate(-259.864 -129.935)"
                    fill="#d9c9ef"
                  ></path>
                  <path
                    id="Path_18"
                    data-name="Path 18"
                    d="M1.386,192h0a1.386,1.386,0,0,1,1.386,1.386v22.173a1.386,1.386,0,0,1-1.386,1.386h0A1.386,1.386,0,0,1,0,215.559V193.386A1.386,1.386,0,0,1,1.386,192Z"
                    transform="translate(0 -167.056)"
                    fill="#dfd2f2"
                  ></path>
                  <circle
                    id="Ellipse_4"
                    data-name="Ellipse 4"
                    cx="1.386"
                    cy="1.386"
                    r="1.386"
                    transform="translate(5.544 5.544)"
                    fill="#f7b236"
                  ></circle>
                  <circle
                    id="Ellipse_5"
                    data-name="Ellipse 5"
                    cx="1.386"
                    cy="1.386"
                    r="1.386"
                    transform="translate(11.086 5.544)"
                    fill="#b39ddd"
                  ></circle>
                  <circle
                    id="Ellipse_6"
                    data-name="Ellipse 6"
                    cx="1.386"
                    cy="1.386"
                    r="1.386"
                    transform="translate(16.63 5.544)"
                    fill="#d80e70"
                  ></circle>
                  <g
                    id="Group_2"
                    data-name="Group 2"
                    transform="translate(5.543 19.402)"
                  >
                    <path
                      id="Path_19"
                      data-name="Path 19"
                      d="M201.155,168.741H173.439a2.772,2.772,0,0,1-2.772-2.772V152.112a2.772,2.772,0,0,1,2.772-2.772h27.717a2.772,2.772,0,0,1,2.772,2.772V165.97A2.772,2.772,0,0,1,201.155,168.741Z"
                      transform="translate(-154.037 -149.34)"
                      fill="#b39ddd"
                    ></path>
                    <path
                      id="Path_20"
                      data-name="Path 20"
                      d="M50.982,160.426H45.439a2.772,2.772,0,0,1-2.772-2.772v-5.543a2.772,2.772,0,0,1,2.772-2.772h5.543a2.772,2.772,0,0,1,2.772,2.772v5.543A2.772,2.772,0,0,1,50.982,160.426Z"
                      transform="translate(-42.667 -149.34)"
                      fill="#b39ddd"
                    ></path>
                    <path
                      id="Path_21"
                      data-name="Path 21"
                      d="M50.982,309.756H45.439a2.772,2.772,0,0,1-2.772-2.772v-5.543a2.772,2.772,0,0,1,2.772-2.772h5.543a2.772,2.772,0,0,1,2.772,2.772v5.543A2.772,2.772,0,0,1,50.982,309.756Z"
                      transform="translate(-42.667 -279.269)"
                      fill="#b39ddd"
                    ></path>
                    <path
                      id="Path_22"
                      data-name="Path 22"
                      d="M172.053,320h8.314a1.386,1.386,0,0,1,1.386,1.386h0a1.386,1.386,0,0,1-1.386,1.386h-8.314a1.386,1.386,0,0,1-1.386-1.386h0A1.386,1.386,0,0,1,172.053,320Z"
                      transform="translate(-154.037 -297.828)"
                      fill="#b39ddd"
                    ></path>
                    <path
                      id="Path_23"
                      data-name="Path 23"
                      d="M385.383,320h2.772a1.386,1.386,0,0,1,1.386,1.386h0a1.386,1.386,0,0,1-1.386,1.386h-2.772A1.386,1.386,0,0,1,384,321.386h0A1.386,1.386,0,0,1,385.383,320Z"
                      transform="translate(-339.651 -297.828)"
                      fill="#b39ddd"
                    ></path>
                    <path
                      id="Path_24"
                      data-name="Path 24"
                      d="M278.723,320h8.314a1.386,1.386,0,0,1,1.386,1.386h0a1.386,1.386,0,0,1-1.386,1.386h-8.314a1.386,1.386,0,0,1-1.386-1.386h0A1.386,1.386,0,0,1,278.723,320Z"
                      transform="translate(-246.848 -297.828)"
                      fill="#b39ddd"
                    ></path>
                    <path
                      id="Path_25"
                      data-name="Path 25"
                      d="M172.053,362.67H183.14a1.386,1.386,0,0,1,1.386,1.386h0a1.386,1.386,0,0,1-1.386,1.386H172.053a1.386,1.386,0,0,1-1.386-1.386h0A1.386,1.386,0,0,1,172.053,362.67Z"
                      transform="translate(-154.037 -334.954)"
                      fill="#b39ddd"
                    ></path>
                    <path
                      id="Path_26"
                      data-name="Path 26"
                      d="M300.053,362.67h2.772a1.386,1.386,0,0,1,1.386,1.386h0a1.386,1.386,0,0,1-1.386,1.386h-2.772a1.386,1.386,0,0,1-1.386-1.386h0A1.386,1.386,0,0,1,300.053,362.67Z"
                      transform="translate(-265.407 -334.954)"
                      fill="#b39ddd"
                    ></path>
                    <path
                      id="Path_27"
                      data-name="Path 27"
                      d="M52.367,258.778H44.053a1.386,1.386,0,0,1-1.386-1.386h0a1.386,1.386,0,0,1,1.386-1.386h8.314a1.386,1.386,0,0,1,1.386,1.386h0A1.386,1.386,0,0,1,52.367,258.778Z"
                      transform="translate(-42.667 -242.148)"
                      fill="#b39ddd"
                    ></path>
                  </g>
                  <path
                    id="Path_28"
                    data-name="Path 28"
                    d="M86.173,320H83.4a13.858,13.858,0,0,0-13.858,13.858h0v.073a2.785,2.785,0,0,1-2.84,2.7H65.386a1.386,1.386,0,1,0,0,2.772h9.7a13.858,13.858,0,0,0,13.858-13.858V320Z"
                    transform="translate(-55.685 -278.428)"
                    fill="#f7b236"
                  ></path>
                  <path
                    id="Path_29"
                    data-name="Path 29"
                    d="M88.945,325.546V320H86.173a13.858,13.858,0,0,1-13.858,13.858H69.544v.074a2.785,2.785,0,0,1-2.84,2.7H65.386a1.386,1.386,0,0,0,0,2.772h9.7a13.858,13.858,0,0,0,13.858-13.858Z"
                    transform="translate(-55.685 -278.428)"
                    fill="#f58b04"
                  ></path>
                  <path
                    id="Path_30"
                    data-name="Path 30"
                    d="M282.788,107.6a3.171,3.171,0,0,0-3.245-.766h0a40,40,0,0,0-22.45,19.826L256,128.844v5.543h5.543l2.185-1.092a40,40,0,0,0,19.826-22.45h0a3.171,3.171,0,0,0-.766-3.245Z"
                    transform="translate(-222.74 -92.812)"
                    fill="#d80e70"
                  ></path>
                  <ellipse
                    id="Ellipse_7"
                    data-name="Ellipse 7"
                    cx="2.772"
                    cy="7.374"
                    rx="2.772"
                    ry="7.374"
                    transform="translate(41.092 34.892) rotate(-135)"
                    fill="#e976af"
                  ></ellipse>
                  <path
                    id="Path_31"
                    data-name="Path 31"
                    d="M279.542,106.833c-.48.17-.935.388-1.406.575A25.035,25.035,0,0,1,256,131.549v2.838h5.543l2.185-1.093a40,40,0,0,0,19.826-22.45,3.171,3.171,0,0,0-4.011-4.011Z"
                    transform="translate(-222.74 -92.812)"
                    fill="#a60068"
                  ></path>
                  <path
                    id="Path_32"
                    data-name="Path 32"
                    d="M234.667,282.88l2.772,2.772,5.543-2.772-5.543-5.543Z"
                    transform="translate(-204.179 -241.305)"
                    fill="#5628b4"
                  ></path>
                  <path
                    id="Path_33"
                    data-name="Path 33"
                    d="M240.432,297.926l1.273,1.273,5.543-2.772-2.659-2.659a2.94,2.94,0,0,0-4.708.764h0a2.94,2.94,0,0,0,.551,3.393Z"
                    transform="translate(-208.446 -254.853)"
                    fill="#420f9b"
                  ></path>
                  <ellipse
                    id="Ellipse_8"
                    data-name="Ellipse 8"
                    cx="2.159"
                    cy="5.514"
                    rx="2.159"
                    ry="5.514"
                    transform="translate(18.499 53.972) rotate(-135)"
                    fill="#fbda9e"
                  ></ellipse>
                </g>
              </g>
            </svg>