<svg xmlns="http://www.w3.org/2000/svg" width="78" height="78" viewBox="0 0 78 78">
      <g id="Group_50" data-name="Group 50" transform="translate(-601 -3001)">
        <circle id="Ellipse_9" data-name="Ellipse 9" cx="33" cy="33" r="33" transform="translate(607 3007)" fill="#29bcf0"></circle>
        <g id="Ellipse_10" data-name="Ellipse 10" transform="translate(601 3001)" fill="none" stroke="#29bcf0" stroke-width="3">
          <circle cx="39" cy="39" r="39" stroke="none"></circle>
          <circle cx="39" cy="39" r="37.5" fill="none"></circle>
        </g>
        <g id="right-quotes-symbol" transform="translate(624.394 2992.381)">
          <g id="Group_22" data-name="Group 22" transform="translate(0 34.57)">
            <path id="Path_55" data-name="Path 55" d="M280.941,42.021s0-.007,0-.01a7.46,7.46,0,1,0-5.031,7.034c-1.674,9.6-9.162,15.8-2.221,10.7C281.387,54.091,280.95,42.237,280.941,42.021Z" transform="translate(-249.692 -34.57)" fill="#fff"></path>
            <path id="Path_56" data-name="Path 56" d="M7.44,49.451a7.412,7.412,0,0,0,2.41-.407c-1.674,9.6-9.163,15.8-2.221,10.7,7.7-5.652,7.26-17.506,7.251-17.722,0,0,0-.007,0-.01a7.44,7.44,0,1,0-7.44,7.44Z" transform="translate(0 -34.57)" fill="#fff"></path>
          </g>
        </g>
      </g>
    </svg>