<svg xmlns="http://www.w3.org/2000/svg" width="220" height="46" viewBox="0 0 220 46">
      <g id="Group_44" data-name="Group 44" transform="translate(-903 -5864)">
        <rect id="Rectangle_34" data-name="Rectangle 34" width="46" height="46" rx="5" transform="translate(903 5864)" fill="#2bbdea"></rect>
        <path id="Path_69" data-name="Path 69" d="M30.17,28.71l.65-4.23H26.76V21.74a2.12,2.12,0,0,1,2.39-2.29H31V15.86a22.08,22.08,0,0,0-3.27-.29c-3.34,0-5.52,2-5.52,5.69v3.22H18.48v4.23H22.2V38.92a14.53,14.53,0,0,0,4.56,0V28.71Z" transform="translate(901.52 5859.43)" fill="#fff"></path>
      </g>
      <g id="Group_43" data-name="Group 43" transform="translate(-911 -5864)">
        <g id="Group_40" data-name="Group 40">
          <rect id="Rectangle_35" data-name="Rectangle 35" width="46" height="46" rx="5" transform="translate(969 5864)" fill="#484b58"></rect>
        </g>
        <g id="Group_37" data-name="Group 37" transform="translate(-3.05 -2.09)">
          <path id="Path_70" data-name="Path 70" d="M29,18.87a1,1,0,1,0,1,1A1,1,0,0,0,29,18.87Z" transform="translate(970.14 5864.24)" fill="#fff"></path>
          <path id="Path_71" data-name="Path 71" d="M24.55,20.16a4.22,4.22,0,1,0,4.22,4.22,4.22,4.22,0,0,0-4.22-4.22Zm0,6.93a2.71,2.71,0,1,1,2.7-2.71,2.71,2.71,0,0,1-2.7,2.71Z" transform="translate(970.14 5864.24)" fill="#fff"></path>
          <path id="Path_72" data-name="Path 72" d="M27.9,33H21.06a5.16,5.16,0,0,1-5.15-5.15V21a5.16,5.16,0,0,1,5.15-5.15H27.9A5.16,5.16,0,0,1,33.05,21v6.8A5.16,5.16,0,0,1,27.9,33ZM21.06,17.42A3.55,3.55,0,0,0,17.52,21v6.8a3.55,3.55,0,0,0,3.54,3.54H27.9a3.55,3.55,0,0,0,3.54-3.54V21a3.55,3.55,0,0,0-3.54-3.54Z" transform="translate(970.14 5864.24)" fill="#fff"></path>
        </g>
      </g>
      <g id="Group_41" data-name="Group 41" transform="translate(-919 -5864)">
        <rect id="Rectangle_37" data-name="Rectangle 37" width="46" height="46" rx="5" transform="translate(1035 5864)" fill="#484b58"></rect>
        <g id="Group_38" data-name="Group 38" transform="translate(68.772 -317.359)">
          <path id="Path_73" data-name="Path 73" d="M16.58,32.75l1.22-4.54a8.42,8.42,0,1,1,3.35,3.32Zm4.8-2.93.29.18a6.85,6.85,0,1,0-2.34-2.32l.18.29-.68,2.54Z" transform="translate(963.648 6179.65)" fill="#fff"></path>
          <path id="Path_74" data-name="Path 74" d="M28.27,25.32a1.39,1.39,0,0,0-1.2-.27c-.32.12-.52.61-.72.86A.31.31,0,0,1,26,26a5.42,5.42,0,0,1-2.71-2.33.34.34,0,0,1,0-.46,1.85,1.85,0,0,0,.49-.8,1.77,1.77,0,0,0-.22-.95c-.16-.35-.35-.86-.7-1.05a.93.93,0,0,0-1,.15,2.14,2.14,0,0,0-.74,1.68,3.07,3.07,0,0,0,.07.53A4.26,4.26,0,0,0,21.66,24c.16.27.34.55.53.81A8.27,8.27,0,0,0,24.5,26.9a7.14,7.14,0,0,0,1.45.69,3.19,3.19,0,0,0,1.67.26,2,2,0,0,0,1.52-1.13,1,1,0,0,0,.08-.58C29.13,25.75,28.59,25.51,28.27,25.32Z" transform="translate(963.648 6179.65)" fill="#fff" fill-rule="evenodd"></path>
        </g>
      </g>
      <g id="Group_42" data-name="Group 42" transform="translate(-927 -5864)">
        <rect id="Rectangle_38" data-name="Rectangle 38" width="46" height="46" rx="5" transform="translate(1101 5864)" fill="#484b58"></rect>
        <g id="Group_39" data-name="Group 39" transform="translate(86.148 -332.034)">
          <path id="Path_75" data-name="Path 75" d="M32.56,19.47a6.57,6.57,0,0,1-1.61.46c.26,0,.64-.51.79-.7a2.83,2.83,0,0,0,.53-1v-.08a.1.1,0,0,0-.09,0,8,8,0,0,1-1.91.74.13.13,0,0,1-.13,0A1.37,1.37,0,0,0,30,18.7a3.37,3.37,0,0,0-.92-.57,3.29,3.29,0,0,0-1.42-.23,3.54,3.54,0,0,0-1.35.38,3.62,3.62,0,0,0-1.09.89,3.23,3.23,0,0,0-.68,2.68c0,.07,0,.08-.07.07a10.24,10.24,0,0,1-6.57-3.34c-.07-.09-.12-.09-.18,0a3.33,3.33,0,0,0,.57,3.94c.13.12.26.25.4.36a3.38,3.38,0,0,1-1.27-.36c-.07-.05-.11,0-.12.07s0,.24,0,.37a3.38,3.38,0,0,0,2.08,2.69,2,2,0,0,0,.42.13,4.1,4.1,0,0,1-1.24,0c-.09,0-.13,0-.09.11a3.49,3.49,0,0,0,2.61,2.19.9.9,0,0,1,.36.05h0c-.29.45-1.31.78-1.78.95a6.4,6.4,0,0,1-2.71.34h-.22c-.04,0,0,.06,0,.1a6.32,6.32,0,0,0,.56.33,9.14,9.14,0,0,0,1.81.73,9.65,9.65,0,0,0,9.37-2.19,9.83,9.83,0,0,0,2.59-7.17c0-.11.12-.16.19-.22a6.16,6.16,0,0,0,1.28-1.32.41.41,0,0,0,.08-.26h0S32.62,19.44,32.56,19.47Z" transform="translate(1013.14 6194.14)" fill="#fff"></path>
        </g>
      </g>
    </svg>