<svg xmlns="http://www.w3.org/2000/svg" width="220" height="46" viewBox="0 0 220 46">
    <g id="Group_42" data-name="Group 42" transform="translate(-927 -5864)">
        <rect id="Rectangle_38" data-name="Rectangle 38" width="46" height="46" rx="5" transform="translate(1101 5864)" fill="#484b58"></rect>
        <g id="Group_39" data-name="Group 39" transform="translate(86.148 -332.034)">
          <path id="Path_75" data-name="Path 75" d="M32.56,19.47a6.57,6.57,0,0,1-1.61.46c.26,0,.64-.51.79-.7a2.83,2.83,0,0,0,.53-1v-.08a.1.1,0,0,0-.09,0,8,8,0,0,1-1.91.74.13.13,0,0,1-.13,0A1.37,1.37,0,0,0,30,18.7a3.37,3.37,0,0,0-.92-.57,3.29,3.29,0,0,0-1.42-.23,3.54,3.54,0,0,0-1.35.38,3.62,3.62,0,0,0-1.09.89,3.23,3.23,0,0,0-.68,2.68c0,.07,0,.08-.07.07a10.24,10.24,0,0,1-6.57-3.34c-.07-.09-.12-.09-.18,0a3.33,3.33,0,0,0,.57,3.94c.13.12.26.25.4.36a3.38,3.38,0,0,1-1.27-.36c-.07-.05-.11,0-.12.07s0,.24,0,.37a3.38,3.38,0,0,0,2.08,2.69,2,2,0,0,0,.42.13,4.1,4.1,0,0,1-1.24,0c-.09,0-.13,0-.09.11a3.49,3.49,0,0,0,2.61,2.19.9.9,0,0,1,.36.05h0c-.29.45-1.31.78-1.78.95a6.4,6.4,0,0,1-2.71.34h-.22c-.04,0,0,.06,0,.1a6.32,6.32,0,0,0,.56.33,9.14,9.14,0,0,0,1.81.73,9.65,9.65,0,0,0,9.37-2.19,9.83,9.83,0,0,0,2.59-7.17c0-.11.12-.16.19-.22a6.16,6.16,0,0,0,1.28-1.32.41.41,0,0,0,.08-.26h0S32.62,19.44,32.56,19.47Z" transform="translate(1013.14 6194.14)" fill="#fff"></path>
        </g>
      </g>
</svg>