<svg xmlns="http://www.w3.org/2000/svg" width="220" height="46" viewBox="0 0 220 46">
    <g id="Group_41" data-name="Group 41" transform="translate(-919 -5864)">
        <rect id="Rectangle_37" data-name="Rectangle 37" width="46" height="46" rx="5" transform="translate(1035 5864)" fill="#484b58"></rect>
        <g id="Group_38" data-name="Group 38" transform="translate(68.772 -317.359)">
          <path id="Path_73" data-name="Path 73" d="M16.58,32.75l1.22-4.54a8.42,8.42,0,1,1,3.35,3.32Zm4.8-2.93.29.18a6.85,6.85,0,1,0-2.34-2.32l.18.29-.68,2.54Z" transform="translate(963.648 6179.65)" fill="#fff"></path>
          <path id="Path_74" data-name="Path 74" d="M28.27,25.32a1.39,1.39,0,0,0-1.2-.27c-.32.12-.52.61-.72.86A.31.31,0,0,1,26,26a5.42,5.42,0,0,1-2.71-2.33.34.34,0,0,1,0-.46,1.85,1.85,0,0,0,.49-.8,1.77,1.77,0,0,0-.22-.95c-.16-.35-.35-.86-.7-1.05a.93.93,0,0,0-1,.15,2.14,2.14,0,0,0-.74,1.68,3.07,3.07,0,0,0,.07.53A4.26,4.26,0,0,0,21.66,24c.16.27.34.55.53.81A8.27,8.27,0,0,0,24.5,26.9a7.14,7.14,0,0,0,1.45.69,3.19,3.19,0,0,0,1.67.26,2,2,0,0,0,1.52-1.13,1,1,0,0,0,.08-.58C29.13,25.75,28.59,25.51,28.27,25.32Z" transform="translate(963.648 6179.65)" fill="#fff" fill-rule="evenodd"></path>
        </g>
      </g>
</svg>