<svg
              xmlns="http://www.w3.org/2000/svg"
              width="62.423"
              height="62.423"
              viewBox="0 0 62.423 62.423"
            >
              <g
                id="Group_16"
                data-name="Group 16"
                transform="translate(-892.789 -756.789)"
              >
                <g id="Group_15" data-name="Group 15">
                  <path
                    id="Path_34"
                    data-name="Path 34"
                    d="M210.7,448H196.092l2.4-7.845H208.3Z"
                    transform="translate(720.604 370.295)"
                    fill="#5628b4"
                  ></path>
                  <path
                    id="Path_35"
                    data-name="Path 35"
                    d="M62.423,60.623V95.56a6.523,6.523,0,0,1-6.508,6.523H6.508A6.523,6.523,0,0,1,0,95.56V60.623A6.523,6.523,0,0,1,6.508,54.1H55.915A6.523,6.523,0,0,1,62.423,60.623Z"
                    transform="translate(892.789 709.284)"
                    fill="#421198"
                  ></path>
                  <path
                    id="Path_36"
                    data-name="Path 36"
                    d="M447.566,60.623V95.56a6.523,6.523,0,0,1-6.508,6.523H438.62a6.523,6.523,0,0,0,6.508-6.523V60.623A6.523,6.523,0,0,0,438.62,54.1h2.438A6.523,6.523,0,0,1,447.566,60.623Z"
                    transform="translate(507.645 709.284)"
                    fill="#421198"
                  ></path>
                  <path
                    id="Path_37"
                    data-name="Path 37"
                    d="M85.047,85.5v31.46a2.9,2.9,0,0,1-2.892,2.9H32.812a2.9,2.9,0,0,1-2.892-2.9V85.5a2.9,2.9,0,0,1,2.892-2.9H82.155a2.9,2.9,0,0,1,2.892,2.9Z"
                    transform="translate(866.517 684.259)"
                    fill="#b39ddd"
                  ></path>
                  <path
                    id="Path_38"
                    data-name="Path 38"
                    d="M443.69,85.5v31.46a2.9,2.9,0,0,1-2.892,2.9H438.36a2.9,2.9,0,0,0,2.892-2.9V85.5a2.9,2.9,0,0,0-2.892-2.9H440.8a2.9,2.9,0,0,1,2.892,2.9Z"
                    transform="translate(507.873 684.259)"
                    fill="#b39ddd"
                  ></path>
                  <path
                    id="Path_39"
                    data-name="Path 39"
                    d="M174.768,497H150.7a.914.914,0,1,0,0,1.829h24.071a.914.914,0,1,0,0-1.829Z"
                    transform="translate(761.267 320.382)"
                    fill="#6f48bf"
                  ></path>
                  <path
                    id="Path_40"
                    data-name="Path 40"
                    d="M108.37,2.744V13.822a2.748,2.748,0,0,1-2.744,2.744h-5.449l-1.646,2.37a.913.913,0,0,1-1.5,0l-1.645-2.37h-5.45a2.748,2.748,0,0,1-2.744-2.744V2.744A2.748,2.748,0,0,1,89.934,0h15.691a2.748,2.748,0,0,1,2.744,2.744Z"
                    transform="translate(816.229 756.789)"
                    fill="#ff6b81"
                  ></path>
                  <path
                    id="Path_41"
                    data-name="Path 41"
                    d="M223.583,2.744V13.822a2.748,2.748,0,0,1-2.744,2.744H218.4a2.748,2.748,0,0,0,2.744-2.744V2.744A2.748,2.748,0,0,0,218.4,0h2.438a2.748,2.748,0,0,1,2.744,2.744Z"
                    transform="translate(701.016 756.789)"
                    fill="#ed2061"
                  ></path>
                  <g
                    id="Group_4"
                    data-name="Group 4"
                    transform="translate(899.684 806.89)"
                  >
                    <path
                      id="Path_42"
                      data-name="Path 42"
                      d="M61.2,410.938H57.469a.914.914,0,0,0,0,1.829H61.2a.914.914,0,0,0,0-1.829Z"
                      transform="translate(-56.555 -410.938)"
                      fill="#415e6f"
                    ></path>
                    <path
                      id="Path_43"
                      data-name="Path 43"
                      d="M121.2,410.938h-3.735a.914.914,0,1,0,0,1.829H121.2a.914.914,0,1,0,0-1.829Z"
                      transform="translate(-109.24 -410.938)"
                      fill="#415e6f"
                    ></path>
                  </g>
                  <path
                    id="Path_44"
                    data-name="Path 44"
                    d="M147.551,38.471a2.44,2.44,0,0,0-3.446,0,2.424,2.424,0,0,0-1.723-.715h0a2.435,2.435,0,0,0-1.719,4.159l3.013,3.013a.61.61,0,0,0,.862,0l3.013-3.013A2.44,2.44,0,0,0,147.551,38.471Z"
                    transform="translate(769.904 723.634)"
                    fill="#fff"
                  ></path>
                  <g
                    id="Group_5"
                    data-name="Group 5"
                    transform="translate(903.419 773.554)"
                  >
                    <path
                      id="Path_45"
                      data-name="Path 45"
                      d="M88.108,286.229h3.919a.914.914,0,0,0,0-1.829H88.108a.914.914,0,0,0,0,1.829Z"
                      transform="translate(-87.194 -266.492)"
                      fill="#5628b4"
                    ></path>
                    <path
                      id="Path_46"
                      data-name="Path 46"
                      d="M94.462,319.4H88.108a.914.914,0,0,0,0,1.829h6.354a.914.914,0,0,0,0-1.829Z"
                      transform="translate(-87.194 -297.225)"
                      fill="#5628b4"
                    ></path>
                    <path
                      id="Path_47"
                      data-name="Path 47"
                      d="M385.708,172.515h-3.919a.914.914,0,1,0,0,1.829h3.919a.914.914,0,1,0,0-1.829Z"
                      transform="translate(-345.07 -168.248)"
                      fill="#5628b4"
                    ></path>
                    <path
                      id="Path_48"
                      data-name="Path 48"
                      d="M369.087,138.429a.914.914,0,0,0-.914-.914h-6.354a.914.914,0,0,0,0,1.829h6.354A.914.914,0,0,0,369.087,138.429Z"
                      transform="translate(-327.534 -137.515)"
                      fill="#5628b4"
                    ></path>
                  </g>
                  <path
                    id="Path_49"
                    data-name="Path 49"
                    d="M240.925,329.082a3.944,3.944,0,0,1-3.938,3.942H220.018a3.942,3.942,0,0,1,0-7.884h.343l2.057-2.841a.915.915,0,0,1,1.481,0l2.058,2.841h11.03A3.945,3.945,0,0,1,240.925,329.082Z"
                    transform="translate(703.053 474.117)"
                    fill="#fbdf63"
                  ></path>
                  <path
                    id="Path_50"
                    data-name="Path 50"
                    d="M373.936,352.263A3.944,3.944,0,0,1,370,356.2H367.56a3.942,3.942,0,0,0,0-7.884H370A3.945,3.945,0,0,1,373.936,352.263Z"
                    transform="translate(570.041 450.936)"
                    fill="#ffa402"
                  ></path>
                  <g
                    id="Group_7"
                    data-name="Group 7"
                    transform="translate(915.002 778.743)"
                  >
                    <g
                      id="Group_6"
                      data-name="Group 6"
                      transform="translate(0 5.182)"
                    >
                      <path
                        id="Path_51"
                        data-name="Path 51"
                        d="M185.715,222.574h-2.606a.914.914,0,0,0,0,1.829h2.606a.914.914,0,0,0,0-1.829Z"
                        transform="translate(-182.194 -222.574)"
                        fill="#56788b"
                      ></path>
                      <path
                        id="Path_52"
                        data-name="Path 52"
                        d="M223.033,247.267a.914.914,0,0,0-.914.914v4.405a.914.914,0,1,0,1.829,0v-4.405A.914.914,0,0,0,223.033,247.267Z"
                        transform="translate(-217.251 -244.256)"
                        fill="#56788b"
                      ></path>
                    </g>
                    <path
                      id="Path_53"
                      data-name="Path 53"
                      d="M205.594,189.425a2.345,2.345,0,0,0-2.024,2.317v2.923a2.345,2.345,0,0,0,2.024,2.317l10.077,1.427V188.084Z"
                      transform="translate(-200.964 -187.107)"
                      fill="#4dd4f7"
                    ></path>
                    <path
                      id="Path_54"
                      data-name="Path 54"
                      d="M285.5,181.9v8.534a1.826,1.826,0,1,1-3.652,0V181.9a1.826,1.826,0,1,1,3.652,0Z"
                      transform="translate(-269.701 -180.074)"
                      fill="#56788b"
                    ></path>
                  </g>
                </g>
              </g>
            </svg>