<svg xmlns="http://www.w3.org/2000/svg" viewBox="0 0 4020.48 4020.48"><defs><style>.cls-1{fill:#8cc63e;}.cls-2{fill:#d5de22;}.cls-3{fill:#25aae2;}.cls-4{fill:#f15a29;}.cls-5{font-size:422.86px;fill:#fff;font-family:Klavika-Medium, Klavika;font-weight:500;}</style></defs><g id="Layer_4" data-name="Layer 4"><path class="cls-1" d="M849.42,1738.32l302.19,87.5a37.31,37.31,0,0,1,25.17,24.5l26.61,83.5,219.44-192.52"/><path class="cls-2" d="M1349.31,1840.4,1120.17,2056a37.29,37.29,0,0,1-33.9,9.19l-85.42-19.6L1051.34,2344"/><path class="cls-3" d="M1008.08,2221.51l-75.45-305.43a37.3,37.3,0,0,1,8.62-34l59-64.82L708.42,1712.31"/><polygon class="cls-4" points="1136.28 1868.15 1045.73 1842.64 978.36 1908.31 1001.54 1999.49 1092.1 2025 1159.47 1959.33 1136.28 1868.15"/><text class="cls-5" transform="translate(1438.24 2119.5)"><tspan xml:space="preserve">Primesp   t</tspan></text><path class="cls-2" d="M2915.1,2015.07,2977,2122.34h123.86l61.94-107.27-61.94-107.27H2977Zm153.2-50.82,29.34,50.82-29.34,50.81h-58.68l-29.33-50.81,29.33-50.82Z"/></g></svg>